<?xml version="1.0" encoding="utf-8"?>
<svg version="1.1" xmlns:xlink="http://www.w3.org/1999/xlink" width="13px" height="13px" xmlns="http://www.w3.org/2000/svg">
  <g transform="matrix(1 0 0 1 -326 -134 )">
    <path d="M 10.672526041666666 7.422526041666668  C 10.779730902777779 7.315321180555555  10.833333333333334 7.188368055555555  10.833333333333334 7.041666666666668  L 10.833333333333334 5.958333333333334  C 10.833333333333334 5.811631944444444  10.779730902777779 5.684678819444444  10.672526041666666 5.577473958333334  C 10.565321180555557 5.470269097222222  10.438368055555557 5.416666666666666  10.291666666666666 5.416666666666666  L 6.04296875 5.416666666666666  L 7.642578125 3.817057291666666  C 7.749782986111112 3.709852430555555  7.803385416666666 3.582899305555555  7.803385416666666 3.436197916666666  C 7.803385416666666 3.289496527777776  7.749782986111112 3.162543402777776  7.642578125 3.055338541666666  L 6.872395833333334 2.28515625  C 6.770833333333334 2.18359375  6.643880208333334 2.1328125  6.491536458333333 2.1328125  C 6.339192708333333 2.1328125  6.212239583333333 2.18359375  6.110677083333333 2.28515625  L 3.046875 5.348958333333334  L 2.2766927083333335 6.119140625  C 2.1751302083333335 6.220703125  2.1243489583333335 6.34765625  2.1243489583333335 6.5  C 2.1243489583333335 6.65234375  2.1751302083333335 6.779296875  2.2766927083333335 6.880859375  L 3.046875 7.651041666666668  L 6.110677083333333 10.71484375  C 6.212239583333333 10.81640625  6.339192708333333 10.8671875  6.491536458333333 10.8671875  C 6.643880208333334 10.8671875  6.770833333333334 10.81640625  6.872395833333334 10.71484375  L 7.642578125 9.944661458333334  C 7.744140625000002 9.843098958333334  7.794921875000002 9.716145833333332  7.794921875 9.563802083333332  C 7.794921875000002 9.411458333333332  7.744140625000002 9.284505208333332  7.642578125 9.182942708333332  L 6.04296875 7.583333333333332  L 10.291666666666666 7.583333333333332  C 10.438368055555557 7.583333333333332  10.565321180555557 7.529730902777778  10.672526041666666 7.422526041666668  Z M 12.128255208333334 3.2373046875  C 12.709418402777777 4.23318142361111  13 5.320746527777776  13 6.5  C 13 7.679253472222222  12.709418402777777 8.766818576388888  12.128255208333334 9.7626953125  C 11.54709201388889 10.75857204861111  10.75857204861111 11.54709201388889  9.7626953125 12.128255208333334  C 8.76681857638889 12.709418402777779  7.679253472222222 13  6.5 13  C 5.320746527777779 13  4.233181423611112 12.709418402777779  3.2373046875 12.128255208333334  C 2.2414279513888893 11.54709201388889  1.4529079861111112 10.75857204861111  0.8717447916666667 9.7626953125  C 0.2905815972222222 8.766818576388888  0 7.679253472222222  0 6.5  C 0 5.320746527777776  0.2905815972222222 4.23318142361111  0.8717447916666667 3.2373046875  C 1.4529079861111112 2.241427951388889  2.2414279513888893 1.4529079861111098  3.2373046875 0.8717447916666662  C 4.233181423611112 0.2905815972222211  5.320746527777779 0  6.5 0  C 7.679253472222222 0  8.76681857638889 0.2905815972222211  9.7626953125 0.8717447916666662  C 10.75857204861111 1.4529079861111098  11.54709201388889 2.241427951388889  12.128255208333334 3.2373046875  Z " fill-rule="nonzero" fill="#000000" stroke="none" transform="matrix(1 0 0 1 326 134 )" />
  </g>
</svg>